<svg width="782" height="166" viewBox="0 0 782 166" fill="none" xmlns="http://www.w3.org/2000/svg">
<path fill-rule="evenodd" clip-rule="evenodd" d="M169.809 0C168.099 0 166.739 1.36206 166.739 2.95895C166.739 4.61562 168.099 5.9734 169.809 5.9734C171.579 5.9734 172.879 4.61562 172.879 2.89917C172.879 1.30228 171.519 0 169.809 0ZM171.882 12.7751H167.685V43.8889H171.882V12.7751ZM9.35596 2.48456H13.727V43.8885H9.35596V2.48456ZM51.9492 25.85V43.8897H47.753V26.2641C47.753 19.6972 44.3244 16.3284 38.4182 16.3284C31.7444 16.3284 27.5482 20.4701 27.5482 27.5664V43.894H23.3521V12.7759H27.3691V18.5145C29.6122 14.7272 33.8084 12.5411 39.1858 12.5411C46.7509 12.5411 51.9492 16.9176 51.9492 25.85ZM72.0939 43.8886L85.9192 12.7748H81.7827L70.0257 39.273L58.3881 12.7748H54.0171L67.7826 43.8886H72.0939ZM115.045 29.6366H89.0495C89.5228 36.1438 94.4866 40.4605 101.28 40.4605C105.062 40.4605 108.427 39.0984 110.789 36.3786L113.152 39.0984C110.376 42.4118 106.064 44.1837 101.16 44.1837C91.4716 44.1837 84.8533 37.5571 84.8533 28.3301C84.8533 19.1031 91.2925 12.5362 100.035 12.5362C108.777 12.5362 115.101 18.9836 115.101 28.3301C115.103 28.5044 115.09 28.706 115.076 28.9215L115.076 28.9218V28.9219V28.9221V28.9222L115.076 28.9224C115.061 29.1501 115.045 29.3934 115.045 29.6366ZM89.0495 26.4984H111.084C110.551 20.4054 106.12 16.1484 100.035 16.1484C94.0132 16.1484 89.5825 20.4054 89.0495 26.4984ZM118.295 37.0282L116.406 40.3416C118.943 42.532 123.907 44.1886 129.054 44.1886C137.148 44.1886 141.873 40.7002 141.873 35.316C141.873 28.8177 135.913 27.7263 130.476 26.7307C125.918 25.896 121.728 25.1287 121.728 21.2984C121.728 18.3437 124.21 16.1533 129.822 16.1533C133.011 16.1533 136.261 16.9219 138.977 18.8134L140.807 15.4403C138.205 13.6641 133.834 12.5411 129.817 12.5411C121.898 12.5411 117.527 16.3284 117.527 21.4137C117.527 28.2037 123.665 29.2996 129.165 30.2816C133.629 31.0786 137.672 31.8006 137.672 35.4313C137.672 38.5056 135.25 40.5166 129.344 40.5166C124.969 40.5166 120.777 38.9795 118.295 37.0282ZM163.016 41.9983C161.361 43.4756 158.88 44.1844 156.457 44.1844C150.611 44.1844 147.361 40.8711 147.361 35.1325V16.3285H141.809V12.7803H147.361V5.97428H151.558V12.776H161.012V16.3242H151.558V34.8977C151.558 38.5654 153.447 40.5765 156.935 40.5765C158.649 40.5765 160.364 40.0428 161.545 38.9796L163.016 41.9983ZM196.278 12.5411V16.623C196.094 16.623 195.909 16.6068 195.733 16.5912C195.57 16.5769 195.415 16.5632 195.272 16.5632C188.773 16.5632 184.816 20.7049 184.816 28.0404V43.894H180.619V12.7759H184.636V18.8689C186.59 14.7315 190.547 12.5411 196.278 12.5411ZM68.3842 116.928H54.6229L56.7423 99.7551H71.9876L71.881 88.2011H58.1197L60.2349 71.2416H48.3798L46.2646 88.2011H30.7038L32.8189 71.2416H20.9639L18.8445 88.2011H3.59917V99.7551H17.467L15.2453 116.928H0V128.482H13.8679L11.7527 145.442H23.6078L25.723 128.482H41.2881L39.1687 145.442H51.1303L53.2455 128.482H68.3842V116.928ZM44.883 99.7551L42.6612 116.928H27.1004L29.3221 99.7551H44.883ZM134.444 66.8012V145.442H118.67V138.871C114.542 143.853 108.508 146.292 100.883 146.292C84.7936 146.292 72.4055 134.844 72.4055 116.933C72.4055 99.0209 84.7894 87.5737 100.883 87.5737C107.868 87.5737 113.8 89.7982 117.928 94.4651V66.8012H134.444ZM118.248 116.928C118.248 107.069 111.894 101.134 103.745 101.134C95.4888 101.134 89.1348 107.069 89.1348 116.928C89.1348 126.787 95.4845 132.722 103.745 132.722C111.894 132.722 118.248 126.787 118.248 116.928ZM156.781 121.59H199.865C199.896 121.192 199.936 120.757 199.977 120.31L199.977 120.307L199.977 120.307C200.077 119.213 200.185 118.044 200.185 117.141C200.185 98.8025 187.268 87.5687 170.543 87.5687C153.178 87.5687 140.159 99.8614 140.159 116.928C140.159 133.887 152.969 146.287 172.658 146.287C182.927 146.287 190.867 143.106 196.159 137.064L187.374 127.525C183.46 131.236 179.118 133.037 173.084 133.037C164.402 133.037 158.368 128.691 156.781 121.59ZM184.624 111.945H156.568C157.732 104.631 163.131 100.075 170.649 100.075C178.061 100.075 183.46 104.737 184.624 111.945ZM200.393 140.142L205.899 128.272C210.982 131.56 218.709 133.784 225.694 133.784C233.315 133.784 236.176 131.769 236.176 128.592C236.176 124.952 230.939 124.185 224.551 123.25C214.566 121.787 201.771 119.913 201.771 106.014C201.771 95.2027 211.511 87.5726 228.129 87.5726C235.963 87.5726 244.645 89.3745 250.044 92.5555L244.539 104.319C238.927 101.138 233.319 100.079 228.129 100.079C220.718 100.079 217.545 102.41 217.545 105.378C217.545 109.251 222.972 110.098 229.515 111.119C239.447 112.669 251.95 114.621 251.95 128.165C251.95 138.763 242.104 146.29 225.063 146.29C215.425 146.286 205.69 143.639 200.393 140.142ZM284.343 87.5687C265.818 87.5687 252.586 99.7547 252.586 116.928C252.586 134.101 265.818 146.287 284.343 146.291C296.305 146.291 305.729 140.992 309.857 131.876L297.047 124.882C293.976 130.395 289.422 132.726 284.236 132.726C275.874 132.726 269.311 126.898 269.311 116.932C269.311 106.966 275.874 101.138 284.236 101.138C289.426 101.138 293.976 103.576 297.047 108.982L309.857 102.09C305.729 92.7608 296.305 87.5687 284.343 87.5687ZM309.115 116.928C309.115 99.7547 322.347 87.5687 340.45 87.5687C358.552 87.5687 371.678 99.7589 371.678 116.928C371.678 134.096 358.552 146.287 340.45 146.287C322.347 146.287 309.115 134.101 309.115 116.928ZM354.953 116.928C354.953 107.069 348.706 101.134 340.45 101.134C332.194 101.134 325.84 107.069 325.84 116.928C325.84 126.787 332.194 132.722 340.45 132.722C348.706 132.722 354.953 126.787 354.953 116.928ZM473.627 145.442V112.795C473.627 95.4127 463.887 87.5691 450.335 87.5648C441.759 87.5648 434.348 91.066 429.798 96.8943C425.776 90.6391 419 87.5648 411.06 87.5648C403.759 87.5648 397.405 90.1096 393.171 94.9857V88.4145H377.396V145.442H393.913V116.821C393.913 106.646 399.098 101.877 406.403 101.877C413.286 101.877 417.201 106.117 417.201 115.34V145.442H433.717V116.821C433.717 106.646 438.902 101.877 446.314 101.877C452.983 101.877 457.111 106.117 457.111 115.34V145.442H473.627ZM545.189 116.928C545.189 134.84 532.805 146.287 516.818 146.287C509.726 146.287 503.901 144.062 499.666 139.396V166H483.15V88.4145H498.924V94.9857C503.052 90.0029 509.193 87.5648 516.813 87.5648C532.801 87.5691 545.189 99.0163 545.189 116.928ZM528.464 116.928C528.464 107.069 522.216 101.134 513.96 101.134C505.704 101.134 499.457 107.069 499.457 116.928C499.457 126.787 505.704 132.722 513.96 132.722C522.216 132.722 528.464 126.787 528.464 116.928ZM567.419 66.7927H550.903V145.442H567.419V66.7927ZM575.461 71.2458C575.461 66.0537 579.589 62.023 585.73 62.023C591.871 62.023 595.999 65.8402 595.999 70.9255C595.999 76.4378 591.871 80.4642 585.73 80.4642C579.594 80.4642 575.461 76.4378 575.461 71.2458ZM577.474 88.4145H593.99V145.441H577.474V88.4145ZM631.569 87.5687C613.044 87.5687 599.812 99.7547 599.812 116.928C599.812 134.101 613.044 146.287 631.569 146.291C643.53 146.291 652.955 140.992 657.083 131.876L644.272 124.882C641.202 130.395 636.648 132.726 631.462 132.726C623.099 132.726 616.537 126.898 616.537 116.932C616.537 106.966 623.099 101.138 631.462 101.138C636.652 101.138 641.202 103.576 644.272 108.982L657.083 102.09C652.955 92.7608 643.53 87.5687 631.569 87.5687ZM656.34 116.928C656.34 99.7547 669.573 87.5687 687.675 87.5687C705.778 87.5687 718.904 99.7589 718.904 116.928C718.904 134.096 705.778 146.287 687.675 146.287C669.573 146.287 656.34 134.101 656.34 116.928ZM702.179 116.928C702.179 107.069 695.931 101.134 687.675 101.134C679.419 101.134 673.065 107.069 673.065 116.928C673.065 126.787 679.415 132.722 687.675 132.722C695.935 132.722 702.179 126.787 702.179 116.928ZM782 145.44V88.4129V88.4087H765.484V116.602C765.484 127.097 759.978 131.973 752.358 131.973C745.053 131.973 740.818 127.733 740.818 118.195V88.4087H724.302V120.633C724.302 138.228 734.362 146.285 748.652 146.285C755.641 146.285 761.991 143.638 766.332 138.655V145.44H782Z" fill="white"/>
</svg>
